<svg
                fill="#ffffff"
                version="1.1"
                id="Capa_1"
                xmlns="http://www.w3.org/2000/svg"
                xmlns:xlink="http://www.w3.org/1999/xlink"
                viewBox="0 0 601.96 601.96"
                xml:space="preserve"
              >
                <g id="SVGRepo_bgCarrier" stroke-width="0"></g>
                <g
                  id="SVGRepo_tracerCarrier"
                  stroke-linecap="round"
                  stroke-linejoin="round"
                ></g>
                <g id="SVGRepo_iconCarrier">
                  <g>
                    <path d="M163.156,107.708l-7.528,11.2c-5.018-13.342-11.322-26.5-20.257-37.577c-12.056-14.994-28.519-26.561-47.98-29.131 c-19.156-2.509-39.719,2.02-54.958,14.321C0.854,92.04-2.268,136.716,1.037,174.232c1.653,19.094,5.753,38.127,11.812,56.304 l38.127-13.341c-2.57-7.772-4.773-15.606-6.548-23.623c-3.305-17.32-4.59-34.945-3.733-52.571 c0.673-8.262,2.02-16.462,4.468-24.357c1.469-3.794,3.244-7.466,5.324-10.955c1.591-2.142,3.366-4.223,5.263-6.12 c1.958-1.53,4.04-2.938,6.181-4.162c2.693-1.163,5.447-2.142,8.323-2.876c2.938-0.428,5.937-0.612,8.874-0.612 c2.632,0.306,5.263,0.856,7.833,1.591c2.387,0.979,4.712,2.142,6.916,3.489c2.815,2.081,5.385,4.406,7.772,6.916 c3.978,4.896,7.344,10.159,10.343,15.729c4.835,10.159,8.507,20.869,11.873,31.579c1.102,3.488,2.142,6.916,3.121,10.404 L14.44,329.067l148.716,221.36H601.96v-442.72H163.156z M163.095,322.947c3.366,0,6.12,2.754,6.12,6.12s-2.754,6.12-6.12,6.12 c-3.366,0-6.12-2.754-6.12-6.12S159.729,322.947,163.095,322.947z M560.344,508.812H185.311L64.563,329.067l74.174-110.404 c2.876,22.399,4.039,44.982,3.427,67.565c-15.851,7.772-26.745,24.051-26.745,42.839c0,26.316,21.42,47.736,47.736,47.736 s47.736-21.42,47.736-47.736c0-19.522-11.812-36.353-28.581-43.696c0.918-33.354-1.53-66.586-8.14-99.511 c-0.979-5.019-2.081-10.037-3.243-14.994l14.443-21.481h375.034v359.428H560.344z M279.864,413.952L479.07,214.746l29.438,29.438 L309.302,443.39L279.864,413.952z M326.988,315.175c29.376,0,53.244-23.867,53.244-53.243s-23.868-53.244-53.244-53.244 s-53.244,23.868-53.244,53.244S297.674,315.175,326.988,315.175z M326.988,250.242c6.426,0,11.628,5.202,11.628,11.628 c0,6.426-5.202,11.628-11.628,11.628s-11.628-5.202-11.628-11.628C315.36,255.444,320.562,250.242,326.988,250.242z M461.322,342.96c-29.376,0-53.244,23.868-53.244,53.244s23.868,53.244,53.244,53.244s53.244-23.868,53.244-53.244 S490.698,342.96,461.322,342.96z M461.322,407.894c-6.426,0-11.628-5.202-11.628-11.628s5.202-11.628,11.628-11.628 s11.628,5.202,11.628,11.628S467.748,407.894,461.322,407.894z"></path>{" "}
                  </g>
                </g>
              </svg>